<svg width="516" height="403" viewBox="0 0 516 403" fill="none" xmlns="http://www.w3.org/2000/svg">
<g clip-path="url(#clip0)">
<path opacity="0.1" d="M181.004 395.194C230.715 395.194 271.013 387.575 271.013 378.175C271.013 368.776 230.715 361.156 181.004 361.156C131.294 361.156 90.9954 368.776 90.9954 378.175C90.9954 387.575 131.294 395.194 181.004 395.194Z" fill="#1475E2"/>
<path opacity="0.1" d="M299.799 56.8339C266.719 55.6911 235.213 45.0285 205.128 33.366C175.044 21.7035 145.245 8.78593 112.958 2.60775C92.1906 -1.36649 68.4386 -1.93278 51.7096 9.16856C35.604 19.8822 30.4008 38.3249 27.605 55.4513C25.4991 68.3383 24.2622 81.9038 30.0277 93.9693C34.0349 102.346 41.1395 109.387 46.0565 117.412C63.1638 145.328 51.0707 179.755 32.5373 207.013C23.8482 219.798 13.7535 232.012 7.04246 245.608C0.331401 259.204 -2.77112 274.835 3.10169 288.743C8.91828 302.517 22.7851 312.843 37.807 320.113C68.316 334.883 104.253 339.107 139.321 341.505C216.925 346.8 294.938 344.51 372.746 342.209C401.543 341.362 430.463 340.5 458.789 336.056C474.521 333.587 490.76 329.669 502.183 320.21C516.679 308.206 520.272 287.881 510.556 272.83C494.261 247.577 449.221 241.307 437.818 214.212C431.551 199.294 437.986 182.683 447.1 168.852C466.645 139.176 499.403 113.142 501.125 79.2254C502.311 55.9309 486.563 32.6007 462.214 21.5759C436.693 10.0205 401.298 11.4745 382.478 30.6009C363.081 50.2731 329.01 57.8491 299.799 56.8339Z" fill="#1475E2"/>
<path d="M273.513 184.55L257.857 174.014L265.754 162.281L224.404 158.99L209.545 170.459L190.946 160.051L175.433 161.913L175.249 157.832C175.057 153.577 174.629 149.336 173.966 145.129C174.032 143.853 174.078 142.389 174.073 140.797C174.073 134.088 173.164 125.196 169.167 119.268L170.087 111.013L162.624 102.213C163.823 99.8302 165.189 97.5355 166.713 95.346C166.969 94.9787 167.224 94.6216 167.5 94.2746C177.186 93.5757 184.827 85.6272 184.827 75.9085C184.827 75.4595 184.827 75.0106 184.776 74.5667C184.776 74.3881 184.741 74.2045 184.72 74.0259C185.666 74.5361 186.621 75.0463 187.577 75.5564C187.756 75.8115 187.961 76.0666 188.186 76.3676L188.232 76.4237L188.518 76.7758L188.61 76.8829C188.712 77.0053 188.819 77.1227 188.927 77.2451L188.998 77.3267C189.269 77.6277 189.555 77.9338 189.862 78.2348C189.899 78.2645 189.933 78.2969 189.964 78.3318L190.348 78.6889L190.455 78.7858C190.782 79.0766 191.13 79.3572 191.477 79.6225L191.59 79.7041L192.029 80.0051L192.172 80.097C192.341 80.199 192.515 80.3061 192.683 80.4031L192.745 80.4388C192.944 80.5459 193.149 80.648 193.353 80.7449L193.455 80.7857C193.629 80.8605 193.799 80.9319 193.966 81L194.125 81.0561C194.304 81.1173 194.477 81.1734 194.661 81.2244L194.774 81.2551C194.999 81.3112 195.224 81.3571 195.454 81.3928H195.479C195.696 81.4278 195.914 81.4499 196.133 81.4591H196.282C196.478 81.4694 196.674 81.4694 196.87 81.4591H196.997C197.242 81.445 197.487 81.4161 197.728 81.3724C198.872 81.2223 199.97 80.8291 200.948 80.2194C201.197 80.0531 201.418 79.8482 201.603 79.6123C202.625 78.2757 201.5 76.8115 201.5 76.8115C201.102 75.8625 198.515 75.1942 198.515 75.1942C198.515 75.1942 190.337 71.7863 190.337 69.0722C190.337 66.358 188.293 52.2773 167.189 49.0581C167.189 49.0581 153.46 48.2878 149.601 55.624L149.519 56.4811C148.384 57.1903 147.444 58.6136 146.324 59.032C145.841 59.1357 145.374 59.3074 144.939 59.5422V59.4452C144.81 59.558 144.704 59.6949 144.628 59.8482C144.387 60.3258 144.243 60.8458 144.203 61.3788C144.088 62.0298 143.862 62.6563 143.534 63.2307C143.442 63.3939 143.34 63.5507 143.227 63.7L143.14 63.8378C143.734 63.884 144.329 63.7877 144.878 63.5572C144.792 64.2557 144.62 64.941 144.367 65.5979C144.692 65.6084 145.013 65.5255 145.292 65.3591C145.571 65.1926 145.796 64.9497 145.941 64.6592V64.6184L146.008 64.5265C146.136 64.2904 146.242 64.0427 146.324 63.7868L146.268 63.848C146.37 63.5164 146.462 63.1797 146.575 62.8532C146.626 62.6692 146.711 62.4963 146.825 62.343C146.962 62.2057 147.129 62.1023 147.312 62.0412C147.496 61.9801 147.692 61.9629 147.883 61.991L147.674 66.4142H147.766C147.643 66.7359 147.492 67.0465 147.316 67.3427C146.59 68.5161 145.272 69.317 144.786 70.6027C144.577 71.2227 144.497 71.879 144.551 72.5311C144.551 72.9137 144.597 73.3015 144.628 73.6841V73.6535C144.699 74.6738 144.72 75.6432 144.168 76.4645C143.789 77.0257 143.181 77.4492 142.972 78.0869C142.914 78.2646 142.888 78.4511 142.895 78.6379C142.936 79.197 143.053 79.7479 143.242 80.2755C143.245 80.2654 143.245 80.255 143.242 80.2449C143.37 80.6331 143.4 81.0465 143.329 81.4489C143.099 82.4693 141.857 83.3213 141.919 84.2957C141.915 84.4238 141.934 84.5516 141.975 84.6732C142.214 85.1492 142.628 85.5147 143.13 85.6936C143.918 86.1408 144.823 86.34 145.726 86.2649C146.065 86.2039 146.392 86.0921 146.698 85.9333C146.34 86.7547 145.972 87.5659 145.599 88.3362C145.542 88.4587 145.481 88.5811 145.42 88.7036C145.42 88.7036 142.261 86.5966 140.467 90.8922C139.943 91.7849 139.569 92.7567 139.358 93.7696C139.268 94.1747 139.141 94.5709 138.98 94.9532C138.183 96.299 136.991 97.3677 135.565 98.0142C131.906 99.6876 117.124 118.089 116.863 122.854C116.735 124.715 116.42 126.557 115.923 128.354C114.759 132.586 114.46 137.009 115.044 141.358C115.226 142.764 115.529 144.152 115.948 145.506C117.518 150.266 118.565 159.148 118.565 159.148L120.262 174.565C120.199 176.693 120.292 178.823 120.538 180.938C118.806 182.912 111.849 191.141 114.507 193.381C116.552 195.146 120.129 194.855 122.138 194.493C120.446 198.671 117.783 205.936 117.431 210.925C116.92 218.308 118.305 228.088 120.497 231.842C122.69 235.597 129.999 245.229 129.999 245.229C129.999 245.229 129.657 258.443 132.269 263.244C134.88 268.044 135.933 278.003 135.933 278.003C135.933 278.003 138.371 286.41 137.15 289.502C135.928 292.594 139.414 295.165 135.754 297.221C132.095 299.277 127.413 345.616 127.413 345.616C127.413 345.616 125.527 375.986 127.413 377.532C127.514 377.605 127.622 377.669 127.735 377.721V387.924C127.735 387.924 126.426 390.067 131.747 390.501C135.392 390.792 145.721 391.45 151.85 391.832L156.598 392.128C156.598 392.128 167.843 394.363 172.811 392.128C177.779 389.894 186.586 389.945 185.277 384.042C185.104 383.239 184.871 382.449 184.582 381.68C183.146 378.017 180.708 377.599 176.215 376.578C175.954 376.522 175.704 376.471 175.474 376.43C170.741 375.609 169.187 377.808 166.534 374.946C164.229 372.471 156.889 369.701 154.39 368.824C154.451 368.64 154.528 368.461 154.589 368.273C153.882 368.153 153.223 367.832 152.693 367.349L159.465 367.778L163.498 368.028C163.498 368.028 173.056 369.931 177.299 368.028C181.541 366.125 189.003 366.176 187.889 361.161C187.742 360.477 187.546 359.806 187.301 359.151C186.08 356.039 184.005 355.697 180.186 354.835C179.967 354.789 179.762 354.743 179.558 354.707C175.535 354.008 174.217 355.875 171.962 353.447C170.03 351.376 163.933 349.054 161.74 348.264C161.74 347.131 160.207 345.519 159.241 343.902C158.106 342.014 160.201 335.407 160.201 335.407L161.398 307.996C161.853 307.793 162.335 307.656 162.829 307.588C162.829 307.588 168.236 302.435 167.015 296.945C166.766 295.285 166.636 293.609 166.626 291.93C168.405 290.283 170.853 287.849 171.548 286.349C172.683 283.906 171.548 272.064 171.548 272.064V226.787L180.595 227.7L188.804 228.542L191.303 228.797L199.512 229.623L218.378 231.526L235.378 228.312L242.733 226.924L257.857 224.067V187.131L273.513 184.55ZM148.998 62.1542L147.945 62.042C148.292 62.0573 148.66 62.1236 148.998 62.1542Z" fill="url(#paint0_linear)"/>
<path d="M236.819 208.533C231.708 215.833 213.333 211.966 213.333 211.966L199.093 198.666L197.176 196.865L200.391 190.049C200.391 190.049 201.413 190.33 203.167 190.83C212.372 193.498 241.133 202.395 236.819 208.533Z" fill="#EFB7B9"/>
<path opacity="0.1" d="M203.156 190.83C202.528 193.013 200.805 196.283 199.093 198.666L197.176 196.865L200.391 190.049C200.391 190.049 201.424 190.33 203.156 190.83Z" fill="black"/>
<path d="M154.319 113.967C154.319 113.967 141.193 119.778 141.837 134.048C142.3 143.241 143.304 152.399 144.842 161.474C144.842 161.474 142.159 182.948 153.332 188.483C164.505 194.018 174.845 198.569 174.845 198.569C174.845 198.569 192.326 200.447 194.498 201.222C196.67 201.997 203.458 190.141 202.206 188.294C200.954 186.447 184.909 182.575 182.865 179.494C180.82 176.412 176.092 174.509 176.092 174.509C176.092 174.509 171.211 171.561 170.879 168.897C170.547 166.234 171.835 164.25 172.162 163.082C172.489 161.913 173.317 150.633 173.317 150.633C173.317 150.633 178.827 110.483 154.319 113.967Z" fill="#DCE6F2"/>
<path opacity="0.1" d="M162.982 160.888C162.982 160.888 144.975 163.898 146.718 170.188C146.718 170.188 153.255 163.398 162.982 160.888Z" fill="black"/>
<path opacity="0.1" d="M163.12 163.434C163.12 163.434 153.22 171.499 155.157 171.913C157.094 172.326 163.12 163.434 163.12 163.434Z" fill="black"/>
<path opacity="0.1" d="M167.879 166.245C167.879 166.245 165.226 171.668 166.856 171.3C168.487 170.933 167.879 166.245 167.879 166.245Z" fill="black"/>
<path opacity="0.1" d="M203.821 191.406L202.727 191.095C203.039 190.075 203.126 189.248 202.87 188.866C201.618 187.019 185.584 183.152 183.545 180.065C181.505 176.979 176.772 175.081 176.772 175.081C176.772 175.081 171.891 172.132 171.559 169.469C171.227 166.806 172.515 164.821 172.842 163.653C173.169 162.485 173.997 151.2 173.997 151.2C173.997 151.2 179.491 111.054 154.983 114.539C154.983 114.539 141.857 120.355 142.496 134.624C142.96 143.817 143.965 152.976 145.507 162.051C145.507 162.051 142.823 183.524 153.997 189.059C165.17 194.595 175.51 199.146 175.51 199.146C175.51 199.146 192.985 201.018 195.162 201.798C195.985 202.094 197.473 200.569 198.929 198.472L199.757 199.242L213.997 212.538C213.997 212.538 232.372 216.41 237.483 209.109C241.802 202.967 213.047 194.069 203.821 191.406Z" fill="black"/>
<path d="M146.764 60.4094C146.264 60.5071 145.784 60.6918 145.348 60.9553C144.837 61.3788 144.837 62.1032 144.709 62.7358C144.559 63.6158 144.21 64.45 143.687 65.1744C144.269 65.217 144.852 65.1209 145.389 64.8938C145.302 65.5921 145.13 66.2773 144.878 66.9345C145.196 66.9426 145.51 66.8588 145.782 66.6933C146.054 66.5277 146.273 66.2873 146.411 66.0009C146.682 65.426 146.896 64.8263 147.05 64.2102C147.098 64.0259 147.182 63.8527 147.296 63.7C147.766 63.144 148.64 63.3939 149.366 63.4654C149.97 63.5162 150.576 63.4049 151.123 63.143C151.669 62.881 152.135 62.478 152.473 61.9757C153.245 60.8074 153.291 57.8178 151.451 57.5015C149.529 57.1852 148.333 59.8278 146.764 60.4094Z" fill="#965D7B"/>
<g opacity="0.1">
<path opacity="0.1" d="M145.297 61.5828C145.343 61.3329 145.374 61.0727 145.43 60.8227C144.944 61.2461 144.919 61.9655 144.791 62.6032C144.727 62.9711 144.626 63.3317 144.49 63.6796C144.892 63.0394 145.166 62.3273 145.297 61.5828Z" fill="black"/>
<path opacity="0.1" d="M145.461 65.7969C145.715 65.1404 145.887 64.4549 145.972 63.7562C145.46 63.9712 144.906 64.0671 144.351 64.0368C144.19 64.3956 143.993 64.7374 143.764 65.0571C144.343 65.1019 144.925 65.0074 145.461 64.7816C145.376 65.4804 145.204 66.1659 144.949 66.8223C145.268 66.8298 145.582 66.7457 145.853 66.5802C146.125 66.4147 146.344 66.1746 146.483 65.8887C146.61 65.6568 146.713 65.4123 146.79 65.1591C146.64 65.3683 146.439 65.5364 146.207 65.6479C145.975 65.7594 145.718 65.8106 145.461 65.7969Z" fill="black"/>
<path opacity="0.1" d="M149.948 62.3277C149.223 62.2563 148.343 62.0063 147.873 62.5624C147.761 62.7163 147.678 62.8891 147.628 63.0725C147.582 63.2052 147.541 63.3429 147.505 63.4807C147.991 63.0981 148.778 63.3021 149.437 63.3684C150.041 63.4177 150.647 63.3056 151.193 63.0438C151.739 62.782 152.206 62.3799 152.545 61.8787C152.7 61.631 152.815 61.3608 152.887 61.0778C152.537 61.5102 152.086 61.8503 151.574 62.0682C151.061 62.2861 150.503 62.3752 149.948 62.3277Z" fill="black"/>
</g>
<path d="M162.149 102.545L169.944 111.901L168.926 121.344L159.506 106.626L162.149 102.545Z" fill="#DCE6F2"/>
<path opacity="0.1" d="M169.938 111.901L168.983 120.783L168.921 121.344L160.421 108.059L159.506 106.626L159.772 106.213L162.144 102.545L162.67 103.177L169.938 111.901Z" fill="black"/>
<path d="M173.986 89.877C171.349 90.632 168.829 93.2237 166.636 96.3714C165.154 98.5433 163.829 100.818 162.67 103.177C161.949 104.616 161.316 105.998 160.789 107.202L160.421 108.059C159.532 110.156 159.036 111.559 159.036 111.559C159.036 111.559 138.847 96.4072 142.041 95.3868C143.115 95.045 144.525 92.7492 145.921 89.8566L146.094 89.4892C146.979 87.6322 147.848 85.5609 148.619 83.612C150.199 79.6072 151.369 76.1278 151.369 76.1278C151.369 76.1278 182.037 87.5812 173.986 89.877Z" fill="#EFB7B9"/>
<path d="M186.064 75.2759C186.064 75.2759 190.726 83.6937 196.987 82.5458C203.248 81.3979 200.672 78.0257 200.672 78.0257L186.064 75.2759Z" fill="#444053"/>
<path d="M177.033 366.66C172.903 368.543 163.565 366.66 163.565 366.66L159.629 366.416C154.518 366.089 145.962 365.538 142.936 365.293C138.52 364.931 139.603 363.125 139.603 363.125V352.212L161.03 346.794C161.03 346.794 169.499 349.687 171.819 352.212C174.022 354.62 175.31 352.768 179.241 353.462C179.435 353.498 179.64 353.539 179.854 353.59C183.585 354.442 185.61 354.779 186.806 357.865C187.046 358.514 187.239 359.179 187.383 359.855C188.487 364.824 181.158 364.788 177.033 366.66Z" fill="#A36468"/>
<path opacity="0.1" d="M186.806 357.865C186.038 358.344 185.231 358.757 184.393 359.1C181.582 360.38 178.909 361.941 176.067 363.15C173.225 364.36 170.163 365.222 167.086 364.992C165.476 364.875 163.831 364.482 162.292 364.941C161.341 365.308 160.444 365.804 159.629 366.416C154.518 366.089 145.962 365.538 142.936 365.293C138.52 364.931 139.603 363.125 139.603 363.125V361.85C139.762 361.85 139.941 361.804 140.145 361.788C141.203 361.771 142.256 361.928 143.263 362.253C145.481 362.855 147.689 363.446 149.908 364.038C150.09 363.351 150.411 362.708 150.85 362.148C151.289 361.589 151.838 361.124 152.463 360.783C153.729 360.112 155.15 359.787 156.583 359.839C160.023 359.885 163.279 361.513 166.713 361.676C167.674 361.764 168.64 361.602 169.519 361.207C169.99 360.972 170.404 360.63 170.864 360.37C171.6 360.015 172.378 359.752 173.179 359.589C175.431 359.03 177.643 358.317 179.798 357.457C180.411 357.217 181.127 356.784 181.045 356.131C180.938 355.263 179.573 355.161 179.215 354.365C179.152 354.222 179.123 354.066 179.13 353.909C179.137 353.752 179.18 353.6 179.256 353.462C179.45 353.498 179.655 353.539 179.87 353.59C183.585 354.442 185.61 354.779 186.806 357.865Z" fill="black"/>
<path d="M172.668 390.537C167.812 392.751 156.823 390.537 156.823 390.537L152.197 390.266C146.207 389.883 136.118 389.246 132.555 388.945C127.357 388.516 128.635 386.394 128.635 386.394V373.532L153.848 367.155C153.848 367.155 163.815 370.558 166.545 373.532C169.136 376.364 170.634 374.186 175.28 375.002C175.51 375.043 175.75 375.094 176.001 375.15C180.391 376.17 182.773 376.553 184.178 380.185C184.463 380.948 184.69 381.73 184.858 382.527C186.126 388.373 177.524 388.327 172.668 390.537Z" fill="#A36468"/>
<path opacity="0.1" d="M184.168 380.185C183.265 380.748 182.316 381.235 181.332 381.639C178.025 383.144 174.876 384.981 171.533 386.404C168.191 387.827 164.587 388.838 160.963 388.572C159.072 388.435 157.135 387.96 155.341 388.511C154.217 388.948 153.159 389.539 152.197 390.266C146.207 389.883 136.118 389.246 132.555 388.945C127.357 388.516 128.635 386.394 128.635 386.394V384.894C128.846 384.859 129.06 384.836 129.274 384.823C130.519 384.8 131.759 384.984 132.943 385.368L140.759 387.47C140.976 386.66 141.357 385.902 141.878 385.243C142.4 384.584 143.05 384.038 143.789 383.639C145.279 382.846 146.953 382.462 148.64 382.527C152.688 382.583 156.516 384.496 160.559 384.69C161.685 384.792 162.819 384.604 163.851 384.144C164.408 383.863 164.873 383.46 165.436 383.159C166.3 382.737 167.216 382.428 168.16 382.241C170.796 381.577 173.384 380.739 175.909 379.731C176.629 379.445 177.473 378.935 177.375 378.17C177.248 377.15 175.643 377.027 175.218 376.088C175.147 375.919 175.114 375.736 175.123 375.552C175.132 375.368 175.182 375.189 175.27 375.027C175.5 375.068 175.74 375.119 175.99 375.175C180.381 376.155 182.763 376.553 184.168 380.185Z" fill="black"/>
<path d="M161.679 302.282L160.314 334.336C160.314 334.336 158.27 340.881 159.379 342.754C160.488 344.626 162.359 346.493 161.679 347.6C160.999 348.708 152.821 360.676 150.178 356.085C147.536 351.493 144.929 331.596 144.929 331.596L147.367 307.021L161.679 302.282Z" fill="#444053"/>
<path d="M167.598 222.42L171.39 227.481V271.498C171.39 271.498 172.499 283.232 171.39 285.655C170.281 288.079 164.659 292.925 164.659 292.925L159.931 268.692L160.953 243.056L167.598 222.42Z" fill="#444053"/>
<path opacity="0.1" d="M161.679 302.282L160.314 334.336C160.314 334.336 158.27 340.881 159.379 342.754C160.488 344.626 162.359 346.493 161.679 347.6C160.999 348.708 152.821 360.676 150.178 356.085C147.536 351.493 144.929 331.596 144.929 331.596L147.367 307.021L161.679 302.282Z" fill="black"/>
<path opacity="0.1" d="M167.598 222.42L171.39 227.481V271.498C171.39 271.498 172.499 283.232 171.39 285.655C170.281 288.079 164.659 292.925 164.659 292.925L159.931 268.692L160.953 243.056L167.598 222.42Z" fill="black"/>
<path d="M171.39 203.645V227.455L167.132 245.99C167.132 245.99 165.768 290.716 166.959 296.155C168.15 301.593 162.87 306.7 162.87 306.7C162.87 306.7 159.803 307.042 159.803 309.419C159.803 311.797 154.692 318.602 154.692 318.602L154.86 331.867C154.86 331.867 157.079 356.697 153.669 361.457C150.26 366.217 154.86 366.9 154.86 366.9C150.603 380.843 130.158 377.614 128.313 376.083C126.467 374.553 128.313 344.453 128.313 344.453C128.313 344.453 132.882 298.537 136.46 296.497C140.038 294.456 136.634 291.905 137.825 288.844C139.016 285.783 136.634 277.452 136.634 277.452C136.634 277.452 135.611 267.585 133.056 262.825C130.5 258.065 130.838 244.969 130.838 244.969C130.838 244.969 123.682 235.444 121.556 231.705C119.429 227.965 118.059 218.272 118.571 210.956C118.918 206.012 121.52 198.814 123.171 194.671C123.963 192.687 124.535 191.401 124.535 191.401L125.021 191.529L152.939 198.824L171.39 203.645Z" fill="#444053"/>
<path opacity="0.1" d="M173.986 89.877C171.349 90.632 168.829 93.2237 166.636 96.3715H166.064C162.85 96.3737 159.692 95.5291 156.91 93.9229C154.128 92.3167 151.82 90.0059 150.219 87.2241C149.55 86.0714 149.012 84.8479 148.614 83.5763C150.194 79.5715 151.364 76.0921 151.364 76.0921C151.364 76.0921 182.037 87.5812 173.986 89.877Z" fill="black"/>
<path d="M184.337 77.1227C184.341 79.9141 183.704 82.6694 182.474 85.1762C181.243 87.683 179.453 89.8744 177.24 91.5817C175.028 93.2891 172.452 94.4667 169.711 95.0238C166.971 95.581 164.139 95.5029 161.434 94.7955C158.728 94.0881 156.222 92.7703 154.107 90.9437C151.992 89.117 150.326 86.8302 149.236 84.2594C148.146 81.6886 147.662 78.9024 147.821 76.1155C147.98 73.3285 148.778 70.6152 150.153 68.1845C150.707 67.1968 151.354 66.2641 152.085 65.3989C153.29 63.9656 154.707 62.7236 156.286 61.7155C158.954 60.0233 162.016 59.0509 165.173 58.8931C168.33 58.7353 171.474 59.3977 174.298 60.8154C177.122 62.2332 179.529 64.3578 181.284 66.9818C183.039 69.6058 184.082 72.6393 184.311 75.786C184.321 76.235 184.337 76.6788 184.337 77.1227Z" fill="#EFB7B9"/>
<path opacity="0.1" d="M168.983 120.783L168.921 121.344L160.421 108.08C159.532 110.177 159.036 111.58 159.036 111.58C159.036 111.58 138.847 96.4072 142.041 95.3868C143.115 95.045 144.525 92.7492 145.921 89.8566L146.094 89.4892C147.577 93.8971 156.189 102.708 159.772 106.238C160.186 106.646 160.529 106.983 160.794 107.228L161.341 107.738L161.627 108.024C162.931 109.366 168.431 115.284 168.983 120.783Z" fill="black"/>
<path d="M175.336 165.791L174.406 195.671L174.242 200.992C174.242 200.992 163.222 199.972 152.938 198.85C144.658 197.947 136.853 196.972 135.652 196.401C134.119 195.681 130.832 195.125 128.241 194.773C126.237 194.503 124.663 194.36 124.663 194.36C124.663 194.36 124.075 194.534 123.171 194.697C121.198 195.054 117.732 195.345 115.713 193.595C113.132 191.355 119.915 183.218 121.607 181.264L121.98 180.841L121.341 174.948L119.68 159.668C119.68 159.668 118.657 150.868 117.124 146.149C116.714 144.807 116.418 143.433 116.24 142.042C115.67 137.732 115.962 133.352 117.098 129.155C117.584 127.372 117.892 125.545 118.018 123.701C118.274 118.982 132.713 100.744 136.291 99.0856C137.901 98.3364 139.196 97.0473 139.951 95.4429C140.2 94.9385 140.387 94.4057 140.508 93.8563C142.041 87.2241 145.921 89.8566 145.921 89.8566C146.856 95.045 161.336 108.779 161.336 108.779L161.622 109.065C163.059 110.534 169.458 117.431 169.003 123.319C168.912 125.51 169.24 127.698 169.969 129.767C172.914 139.024 174.608 148.632 175.004 158.337L175.336 165.791Z" fill="#DCE6F2"/>
<path opacity="0.1" d="M154.819 130.308C154.819 130.308 151.242 138.981 148.558 140.384C145.875 141.787 156.097 143.343 154.819 130.308Z" fill="black"/>
<path opacity="0.1" d="M157.503 146.506C157.503 146.506 149.325 147.526 149.325 149.057C149.325 150.587 157.503 146.506 157.503 146.506Z" fill="black"/>
<path opacity="0.1" d="M166.064 156.454C166.064 156.454 154.181 181.708 150.858 182.473C147.536 183.238 166.064 156.454 166.064 156.454Z" fill="black"/>
<path opacity="0.1" d="M161.111 110.059L151.282 114.324L139.419 96.4378C139.668 95.9333 139.856 95.4005 139.976 94.8511C141.51 88.2189 145.389 90.8514 145.389 90.8514C146.324 96.0398 160.805 109.774 160.805 109.774L161.111 110.059Z" fill="black"/>
<path d="M161.622 109.039L151.794 113.304L139.93 95.4174C140.18 94.913 140.367 94.3802 140.488 93.8308C142.021 87.1986 145.9 89.8311 145.9 89.8311C146.836 95.0195 161.316 108.753 161.316 108.753L161.622 109.039Z" fill="#DCE6F2"/>
<path opacity="0.1" d="M174.242 200.992C174.242 200.992 163.222 199.972 152.938 198.85L171.39 203.671V209.283C170.582 210.012 169.882 210.39 169.427 210.196C167.301 209.303 149.948 206.497 149.948 206.497C149.948 206.497 139.869 201.395 128.992 195.273C128.728 195.127 128.472 194.967 128.226 194.794C126.957 193.934 125.865 192.842 125.006 191.575C122.997 188.672 122.016 184.942 121.591 181.284C121.353 179.188 121.264 177.077 121.325 174.969C121.378 172.577 121.597 170.192 121.98 167.831C120.928 158.686 120.416 149.487 120.446 140.282C120.574 125.997 133.991 120.895 133.991 120.895C158.653 118.727 151.006 158.521 151.006 158.521C151.006 158.521 149.58 169.744 149.192 170.892C148.803 172.04 147.408 173.953 147.597 176.632C147.786 179.31 152.499 182.514 152.499 182.514C152.499 182.514 157.099 184.667 158.995 187.855C160.375 190.207 169.34 193.396 174.406 195.671L174.242 200.992Z" fill="black"/>
<path opacity="0.1" d="M182.502 65.7969C182.511 66.6372 182.337 67.4694 181.991 68.2355C181.729 68.8606 181.425 69.4674 181.081 70.0517C180.543 71.1265 179.78 72.0731 178.842 72.827C177.662 73.6688 176.169 73.9035 174.753 74.2453C173.338 74.5871 171.865 75.133 171.058 76.337C170.62 77.111 170.327 77.9581 170.194 78.8368C170.059 79.7148 169.707 80.5456 169.172 81.2551C168.893 81.6014 168.507 81.8455 168.074 81.9489C167.641 82.0523 167.186 82.0093 166.78 81.8265C166.352 81.5388 166.028 81.1223 165.855 80.6378C165.272 79.3266 165.124 77.8726 164.889 76.4594C164.653 75.0463 164.321 73.5923 163.452 72.4546C162.583 71.3169 161.045 70.567 159.68 71.0108C159.224 71.1863 158.807 71.4521 158.456 71.7923C158.104 72.1324 157.825 72.5399 157.636 72.9903C157.258 73.8919 156.999 74.8384 156.864 75.8064C156.23 79.2688 155.482 82.7108 154.62 86.1323C154.594 86.2726 154.536 86.4051 154.451 86.52C154.316 86.6552 154.132 86.7321 153.94 86.7343C152.795 86.8874 151.697 86.0864 150.541 86.1731C150.422 86.181 150.304 86.1998 150.189 86.2292C148.321 82.9894 147.496 79.2549 147.826 75.5316C148.157 71.8084 149.625 68.2764 152.034 65.4142L152.126 65.3887C152.894 65.1164 153.593 64.6773 154.17 64.1031C154.908 63.3661 155.591 62.5767 156.215 61.741L156.624 61.2308C157.799 59.8181 159.137 58.5492 160.611 57.4504C161.013 57.1215 161.474 56.8722 161.97 56.7158C162.394 56.6333 162.829 56.6195 163.258 56.675C165.023 56.8865 166.803 56.953 168.579 56.874C169.816 56.6798 171.064 56.5537 172.315 56.4964C175.551 56.5883 178.311 58.8687 180.355 61.3686C181.454 62.6491 182.436 64.1235 182.502 65.7969Z" fill="black"/>
<path d="M147.766 68.6691C147.055 69.8323 145.772 70.6231 145.292 71.8985C144.587 73.7504 145.778 76.0564 144.684 77.7094C144.321 78.2655 143.723 78.6787 143.518 79.3164C143.171 80.3929 144.121 81.5408 143.876 82.6478C143.631 83.7549 142.169 84.6885 142.557 85.7701C142.787 86.2418 143.19 86.6071 143.682 86.7904C144.456 87.2339 145.348 87.4314 146.238 87.3567C147.633 87.1271 148.67 85.7599 150.086 85.6578C151.236 85.5762 152.335 86.3721 153.48 86.2241C153.672 86.2175 153.854 86.1392 153.991 86.0048C154.078 85.8911 154.136 85.758 154.16 85.617C155.019 82.1989 155.768 78.7569 156.409 75.2912C156.539 74.3229 156.797 73.376 157.176 72.475C157.367 72.0256 157.646 71.6189 157.997 71.2789C158.348 70.9389 158.764 70.6726 159.22 70.4955C160.585 70.0568 162.118 70.8016 162.992 71.9393C163.866 73.077 164.198 74.531 164.434 75.9442C164.669 77.3573 164.817 78.8113 165.394 80.1225C165.57 80.6088 165.896 81.0268 166.325 81.3163C167.091 81.7601 168.124 81.4081 168.712 80.7449C169.25 80.0352 169.602 79.202 169.734 78.3216C169.867 77.4444 170.16 76.599 170.598 75.8268C171.405 74.6228 172.882 74.0769 174.293 73.7351C175.704 73.3933 177.191 73.1535 178.382 72.3118C179.318 71.5586 180.081 70.614 180.621 69.5415C181.377 68.2253 182.083 66.7968 182.021 65.2816C181.955 63.6286 180.974 62.1542 179.926 60.8686C177.881 58.3688 175.116 56.0883 171.881 56.0016C170.629 56.0538 169.381 56.1799 168.144 56.3791C166.368 56.4588 164.588 56.3905 162.824 56.175C162.394 56.1238 161.96 56.1393 161.535 56.2209C161.039 56.3723 160.578 56.6221 160.181 56.9556C158.706 58.0525 157.366 59.3197 156.189 60.7309C155.43 61.7351 154.607 62.6894 153.726 63.5878C153.147 64.163 152.449 64.6037 151.681 64.8785C151.17 65.0214 150.659 64.9194 150.173 65.0775C148.665 65.552 148.466 67.5161 147.766 68.6691Z" fill="#965D7B"/>
<path opacity="0.1" d="M196.987 82.5407C192.898 83.2906 189.509 79.9898 187.634 77.5818C187.057 76.8505 186.533 76.08 186.064 75.2759L200.1 77.9185L200.667 78.0257C200.667 78.0257 203.248 81.3979 196.987 82.5407Z" fill="black"/>
<g opacity="0.1">
<path opacity="0.1" d="M143.876 81.1887C143.933 80.5215 143.832 79.8503 143.58 79.2297C143.58 79.2807 143.534 79.3317 143.518 79.3827C143.299 80.0664 143.595 80.7755 143.784 81.4846C143.825 81.3894 143.856 81.2902 143.876 81.1887Z" fill="black"/>
<path opacity="0.1" d="M145.093 72.8372C145.04 73.5427 145.054 74.2515 145.133 74.9544C145.186 74.249 145.172 73.5401 145.093 72.8372Z" fill="black"/>
<path opacity="0.1" d="M180.59 68.0671C180.052 69.1419 179.289 70.0885 178.351 70.8425C177.171 71.6842 175.683 71.9189 174.262 72.2607C172.842 72.6025 171.375 73.1484 170.567 74.3524C170.13 75.1268 169.837 75.9737 169.703 76.8523C169.57 77.7325 169.219 78.5655 168.681 79.2756C168.093 79.9388 167.061 80.2959 166.294 79.847C165.865 79.5575 165.539 79.1395 165.364 78.6532C164.786 77.342 164.633 75.8932 164.403 74.4749C164.173 73.0566 163.83 71.6077 162.962 70.47C162.093 69.3323 160.554 68.5824 159.189 69.0262C158.733 69.2025 158.317 69.4686 157.966 69.8087C157.614 70.1487 157.335 70.5558 157.145 71.0057C156.767 71.9067 156.509 72.8536 156.378 73.8219C155.741 77.2876 154.991 80.7296 154.129 84.1477C154.105 84.2887 154.047 84.4218 153.961 84.5355C153.824 84.6699 153.641 84.7482 153.449 84.7548C152.305 84.9028 151.206 84.1069 150.056 84.1886C148.64 84.2906 147.602 85.6578 146.207 85.8823C145.317 85.962 144.424 85.7641 143.651 85.316C143.296 85.1635 142.977 84.9374 142.716 84.6528C142.596 84.8237 142.517 85.0195 142.484 85.2255C142.452 85.4314 142.466 85.642 142.527 85.8415C142.752 86.3165 143.156 86.6833 143.651 86.8619C144.424 87.31 145.317 87.5078 146.207 87.4281C147.602 87.2037 148.64 85.8364 150.056 85.7344C151.206 85.6528 152.305 86.4486 153.449 86.3007C153.641 86.294 153.824 86.2157 153.961 86.0813C154.047 85.9676 154.105 85.8345 154.129 85.6936C154.988 82.2924 155.738 78.8505 156.378 75.3677C156.509 74.3994 156.767 73.4526 157.145 72.5515C157.335 72.1016 157.614 71.6945 157.966 71.3545C158.317 71.0144 158.733 70.7484 159.189 70.5721C160.554 70.1282 162.087 70.8782 162.962 72.0159C163.836 73.1535 164.168 74.6075 164.403 76.0207C164.638 77.4339 164.786 78.8879 165.364 80.199C165.539 80.6853 165.865 81.1033 166.294 81.3928C167.061 81.8367 168.093 81.4846 168.681 80.8214C169.219 80.1113 169.57 79.2783 169.703 78.3981C169.837 77.5196 170.13 76.6726 170.567 75.8983C171.375 74.6943 172.852 74.1535 174.262 73.8066C175.673 73.4596 177.161 73.2301 178.351 72.3883C179.289 71.6343 180.052 70.6878 180.59 69.6129C181.347 68.3018 182.052 66.8733 181.991 65.3581C181.981 65.1633 181.96 64.9691 181.929 64.7765C181.683 65.9442 181.229 67.0585 180.59 68.0671Z" fill="black"/>
</g>
<path opacity="0.1" d="M182.011 68.2202C183.322 70.5463 184.099 73.1339 184.286 75.7962C179.732 73.2454 175.448 70.4445 173.286 69.4701C169.519 67.7712 155.433 68.0263 150.137 68.1845C150.691 67.1968 151.338 66.2641 152.07 65.3989C153.279 63.9644 154.701 62.7224 156.286 61.7155C158.385 60.3859 160.734 59.4975 163.188 59.1047C165.643 58.7118 168.152 58.8227 170.562 59.4305C172.972 60.0384 175.233 61.1305 177.206 62.64C179.179 64.1495 180.823 66.0448 182.037 68.21L182.011 68.2202Z" fill="black"/>
<path opacity="0.1" d="M198.265 80.3776C195.806 81.1326 191.794 79.6735 187.634 77.5818C187.057 76.8505 186.533 76.08 186.064 75.2759L200.1 77.9185C201.03 78.5512 201.265 79.4542 198.265 80.3776Z" fill="black"/>
<path d="M167.153 50.5325C167.153 50.5325 153.736 49.7673 149.964 57.0372L149.356 63.4807L148.333 63.3684L148.129 67.7508C148.129 67.7508 168.635 66.858 173.302 68.9599C177.968 71.0618 192.469 81.653 198.28 79.8674C204.092 78.0818 197.769 76.4237 197.769 76.4237C197.769 76.4237 189.77 73.0413 189.77 70.3884C189.77 67.7355 187.787 53.7211 167.153 50.5325Z" fill="#444053"/>
<path opacity="0.1" d="M141.275 289.395C141.275 289.395 149.836 297.685 153.542 297.047C153.542 297.047 143.064 296.155 141.275 289.395Z" fill="black"/>
<path opacity="0.1" d="M139.486 293.237C139.486 293.237 140.253 297.502 142.297 297.083C144.342 296.665 139.486 293.237 139.486 293.237Z" fill="black"/>
<path opacity="0.1" d="M152.903 364.518C152.903 364.518 140.748 373.956 142.798 374.211C144.847 374.466 152.903 364.518 152.903 364.518Z" fill="black"/>
<path d="M169.162 177.198L208.518 170.806V207.997L171.124 206.043L169.162 177.198Z" fill="#1475E2"/>
<path opacity="0.05" d="M169.162 177.198L208.518 170.806V207.997L171.124 206.043L169.162 177.198Z" fill="black"/>
<path d="M208.518 170.806L255.715 174.331L253.103 206.696L208.518 207.997V170.806Z" fill="#1475E2"/>
<path opacity="0.1" d="M208.518 170.806L255.715 174.331L253.103 206.696L208.518 207.997V170.806Z" fill="black"/>
<path d="M223.029 159.454L208.518 170.806L255.715 174.331L263.428 162.714L223.029 159.454Z" fill="#1475E2"/>
<path d="M154.911 164.801L190.342 160.495L208.518 170.806L169.162 177.198L154.911 164.801Z" fill="#1475E2"/>
<path d="M217.146 180.463V231.312L198.71 229.424L190.69 228.608L188.247 228.353L180.233 227.532L169.162 226.399V177.198L208.513 179.871L217.146 180.463Z" fill="#1475E2"/>
<path d="M255.715 174.331V223.92L240.939 226.751L233.752 228.128L217.146 231.312V180.463L255.715 174.331Z" fill="#1475E2"/>
<path opacity="0.05" d="M255.715 174.331V223.92L240.939 226.751L233.752 228.128L217.146 231.312V180.463L255.715 174.331Z" fill="black"/>
<path d="M154.911 187.901L169.162 177.198L217.146 180.463L210.082 192.34L154.911 187.901Z" fill="#1475E2"/>
<path opacity="0.1" d="M154.911 187.901L169.162 177.198L217.146 180.463L210.082 192.34L154.911 187.901Z" fill="white"/>
<path d="M255.715 174.331L217.146 180.463L229.699 191.687L271.013 184.769L255.715 174.331Z" fill="#1475E2"/>
<path opacity="0.1" d="M255.715 174.331L217.146 180.463L229.699 191.687L271.013 184.769L255.715 174.331Z" fill="white"/>
<path opacity="0.1" d="M240.939 226.751L233.752 228.128V217.532L240.484 215.838L240.939 226.751Z" fill="white"/>
<path opacity="0.1" d="M198.71 222.414V229.424L190.69 228.608V222.414H198.71Z" fill="white"/>
<path opacity="0.1" d="M188.247 224.624V228.353L180.232 227.532V224.624H188.247Z" fill="white"/>
<path opacity="0.1" d="M212.321 218.695C206.826 225.71 188.681 220.864 188.681 220.864L175.198 206.824L173.368 204.921L176.946 198.288C176.946 198.288 177.968 198.625 179.675 199.217C188.712 202.37 216.947 212.793 212.321 218.695Z" fill="black"/>
<path d="M211.81 217.675C206.315 224.69 188.17 219.843 188.17 219.843L174.687 205.803L172.857 203.9L176.435 197.268C176.435 197.268 177.457 197.605 179.164 198.197C188.201 201.349 216.435 211.772 211.81 217.675Z" fill="#EFB7B9"/>
<path opacity="0.1" d="M179.144 198.197C178.397 200.339 176.501 203.513 174.666 205.803L172.836 203.9L176.414 197.268C176.414 197.268 177.442 197.605 179.144 198.197Z" fill="black"/>
<path d="M134.502 118.855C134.502 118.855 121.085 123.956 120.958 138.241C120.927 147.446 121.439 156.645 122.491 165.791C122.491 165.791 118.658 187.09 129.519 193.212C140.38 199.334 150.475 204.436 150.475 204.436C150.475 204.436 167.828 207.242 169.959 208.135C172.09 209.028 179.497 197.549 178.347 195.636C177.197 193.722 161.398 189.003 159.522 185.815C157.646 182.626 153.025 180.478 153.025 180.478C153.025 180.478 148.313 177.269 148.124 174.591C147.935 171.913 149.325 169.999 149.719 168.852C150.112 167.704 151.538 156.48 151.538 156.48C151.538 156.48 159.164 116.661 134.502 118.855Z" fill="#DCE6F2"/>
<path opacity="0.1" d="M140.636 166.148C140.636 166.148 122.491 168.188 123.896 174.565C123.896 174.565 130.792 168.132 140.636 166.148Z" fill="black"/>
<path opacity="0.1" d="M140.636 168.699C140.636 168.699 130.337 176.224 132.228 176.734C134.119 177.244 140.636 168.699 140.636 168.699Z" fill="black"/>
<path opacity="0.1" d="M145.236 171.76C145.236 171.76 142.297 177.035 143.958 176.759C145.619 176.484 145.236 171.76 145.236 171.76Z" fill="black"/>
<path d="M334.158 57.3382C334.158 57.3382 314.735 56.1699 317.004 69.7711C317.004 69.7711 316.549 72.174 318.732 73.2658C318.732 73.2658 318.768 72.2454 320.725 72.5974C321.422 72.7146 322.131 72.7488 322.836 72.6995C323.792 72.6359 324.7 72.2613 325.422 71.6332C325.422 71.6332 330.886 69.3834 333.013 60.4656C333.013 60.4656 334.587 58.5167 334.546 58.0167L331.265 59.4197C331.265 59.4197 332.384 61.7818 331.5 63.746C331.5 63.746 331.398 59.5064 330.764 59.6034C330.636 59.6034 329.062 60.4247 329.062 60.4247C329.062 60.4247 330.989 64.5367 329.532 67.5314C329.532 67.5314 330.084 62.4603 328.459 60.7206L326.148 62.0675C326.148 62.0675 328.402 66.3172 326.874 69.7864C326.874 69.7864 327.268 64.4653 325.663 62.394L323.567 64.0215C323.567 64.0215 325.688 68.2151 324.395 71.0924C324.395 71.0924 324.226 64.899 323.112 64.4296C323.112 64.4296 321.282 66.0417 321.006 66.705C321.006 66.705 322.453 69.766 321.553 71.3526C321.553 71.3526 321.001 67.2253 320.531 67.2049C320.531 67.2049 318.706 69.9395 318.517 71.7965C318.606 70.0652 319.147 68.3872 320.086 66.9294C319.035 67.128 318.064 67.63 317.296 68.3732C317.296 68.3732 317.577 66.4397 320.536 66.2713C320.536 66.2713 322.07 64.1949 322.448 64.0674C322.448 64.0674 319.504 63.8225 317.72 64.6133C317.72 64.6133 319.289 62.7919 322.99 63.5929L325.034 61.9093C325.034 61.9093 321.16 61.3992 319.514 61.9655C319.514 61.9655 321.405 60.3533 325.591 61.5267L327.84 60.185C327.84 60.185 324.538 59.4707 322.57 59.7309C322.57 59.7309 324.646 58.6136 328.499 59.8227L330.11 59.1034C330.11 59.1034 327.687 58.6289 326.981 58.5524C326.276 58.4759 326.235 58.282 326.235 58.282C327.768 58.0274 329.341 58.2041 330.779 58.7922C330.779 58.7922 334.229 57.5525 334.158 57.3382Z" fill="#1475E2"/>
<path opacity="0.1" d="M393.172 125.365C393.172 125.365 373.749 124.196 376.018 137.797C376.018 137.797 375.564 140.2 377.746 141.292C377.746 141.292 377.782 140.272 379.744 140.624C380.442 140.741 381.15 140.775 381.855 140.726C382.8 140.657 383.697 140.285 384.411 139.665C384.411 139.665 389.88 137.41 392.006 128.492C392.006 128.492 393.575 126.548 393.514 126.048L390.233 127.446C390.233 127.446 391.352 129.808 390.473 131.772C390.473 131.772 390.366 127.533 389.737 127.63C389.609 127.63 388.03 128.451 388.03 128.451C388.03 128.451 389.962 132.568 388.505 135.558C388.505 135.558 389.057 130.487 387.427 128.747L385.142 130.079C385.142 130.079 387.396 134.328 385.868 137.797C385.868 137.797 386.261 132.476 384.656 130.405L382.566 132.038C382.566 132.038 384.682 136.226 383.394 139.103C383.394 139.103 383.225 132.91 382.111 132.441C382.111 132.441 380.281 134.053 380 134.716C380 134.716 381.452 137.777 380.552 139.364C380.552 139.364 380 135.236 379.53 135.216C379.53 135.216 377.705 137.95 377.516 139.807C377.607 138.076 378.15 136.398 379.09 134.94C378.037 135.14 377.066 135.641 376.294 136.384C376.294 136.384 376.581 134.451 379.54 134.282C379.54 134.282 381.048 132.206 381.452 132.078C381.452 132.078 378.508 131.833 376.724 132.624C376.724 132.624 378.293 130.803 381.988 131.629L384.033 129.946C384.033 129.946 380.153 129.436 378.513 130.002C378.513 130.002 380.404 128.39 384.59 129.563L386.839 128.221C386.839 128.221 383.532 127.512 381.564 127.767C381.564 127.767 383.644 126.65 387.498 127.859L389.108 127.14C389.108 127.14 386.686 126.665 385.975 126.589C385.265 126.512 385.229 126.319 385.229 126.319C386.763 126.064 388.338 126.24 389.778 126.829C389.778 126.829 393.233 125.579 393.172 125.365Z" fill="#1475E2"/>
<path opacity="0.1" d="M275.179 113.289C275.179 113.289 279.651 94.3665 265.831 94.3002C265.831 94.3002 263.536 93.4431 262.089 95.4021C262.089 95.4021 263.076 95.6113 262.406 97.4785C262.174 98.1388 262.02 98.8236 261.946 99.5192C261.847 100.468 262.061 101.422 262.554 102.238C262.554 102.238 263.847 108.003 272.266 111.615C272.266 111.615 273.922 113.493 274.423 113.513L273.605 110.049C273.605 110.049 271.08 110.748 269.291 109.539C269.291 109.539 273.497 110.156 273.503 109.539C273.503 109.411 272.991 107.723 272.991 107.723C272.991 107.723 268.601 108.917 265.892 106.973C265.892 106.973 270.804 108.381 272.802 107.08L271.882 104.57C271.882 104.57 267.282 106.065 264.134 103.968C264.134 103.968 269.322 105.264 271.642 104.039L270.39 101.703C270.39 101.703 265.892 103.07 263.27 101.31C263.27 101.31 269.403 102.198 270.068 101.187C270.068 101.187 268.79 99.1111 268.182 98.7234C268.182 98.7234 264.931 99.6315 263.5 98.4734C263.5 98.4734 267.665 98.6315 267.763 98.1928C267.763 98.1928 265.376 95.9327 263.556 95.4225C265.252 95.8079 266.818 96.6272 268.1 97.7999C268.081 96.7307 267.751 95.6901 267.149 94.8052C267.149 94.8052 269.01 95.4174 268.683 98.3764C268.683 98.3764 270.472 100.213 270.528 100.631C270.528 100.631 271.269 97.7795 270.794 95.8868C270.794 95.8868 272.327 97.7438 270.88 101.239L272.189 103.56C272.189 103.56 273.375 99.8355 273.073 98.1214C273.073 98.1214 274.346 100.254 272.47 104.172L273.416 106.616C273.416 106.616 274.678 103.483 274.76 101.514C274.76 101.514 275.511 103.749 273.656 107.335L274.095 109.039C274.095 109.039 274.975 106.738 275.169 106.055C275.363 105.371 275.562 105.366 275.562 105.366C275.555 106.918 275.114 108.437 274.29 109.753C274.29 109.753 274.959 113.314 275.179 113.289Z" fill="#1475E2"/>
<path opacity="0.1" d="M232.643 119.737C232.643 119.737 217.044 108.09 211.467 120.707C211.467 120.707 209.765 122.467 210.987 124.574C210.987 124.574 211.569 123.752 213.031 125.115C213.549 125.595 214.122 126.013 214.738 126.359C215.573 126.823 216.537 127.002 217.483 126.87C217.483 126.87 223.289 127.987 229.975 121.707C229.975 121.707 232.362 120.941 232.587 120.492L229.065 119.875C229.065 119.875 228.697 122.462 226.883 123.62C226.883 123.62 229.127 120.018 228.544 119.758C228.426 119.702 226.668 119.503 226.668 119.503C226.668 119.503 226.014 124.002 223.151 125.701C223.151 125.701 226.407 121.768 226.004 119.421L223.33 119.278C223.33 119.278 222.875 124.069 219.686 126.13C219.686 126.13 222.942 121.9 222.753 119.288L220.105 119.503C220.105 119.503 219.568 124.161 216.906 125.854C216.906 125.854 220.172 120.589 219.502 119.589C219.502 119.589 217.084 119.931 216.486 120.329C216.486 120.329 216.021 123.666 214.386 124.513C214.386 124.513 216.2 120.763 215.832 120.503C215.832 120.503 212.801 121.783 211.61 123.242C212.64 121.845 214.018 120.741 215.607 120.038C214.619 119.628 213.532 119.515 212.479 119.712C212.479 119.712 213.777 118.253 216.343 119.737C216.343 119.737 218.746 118.834 219.154 118.947C219.154 118.947 216.829 117.125 214.902 116.809C214.902 116.809 217.222 116.146 219.855 118.85L222.507 118.579C222.507 118.579 219.558 116.028 217.866 115.6C217.866 115.6 220.335 115.289 223.182 118.564L225.799 118.681C225.799 118.681 223.433 116.273 221.649 115.406C221.649 115.406 223.995 115.61 226.55 118.737L228.293 119.018C228.293 119.018 226.53 117.294 225.978 116.845C225.426 116.396 225.503 116.207 225.503 116.207C226.925 116.835 228.144 117.846 229.024 119.125C229.024 119.125 232.577 119.947 232.643 119.737Z" fill="#1475E2"/>
<path opacity="0.1" d="M284.579 11.5248C284.579 11.5248 268.979 -0.127543 263.403 12.4941C263.403 12.4941 261.701 14.2542 262.922 16.3612C262.922 16.3612 263.505 15.5398 264.967 16.902C265.487 17.3803 266.062 17.7964 266.679 18.1417C267.514 18.606 268.478 18.7852 269.424 18.6519C269.424 18.6519 275.23 19.7692 281.916 13.4838C281.916 13.4838 284.303 12.7237 284.522 12.2696L281.001 11.6625C281.001 11.6625 280.638 14.2491 278.818 15.4072C278.818 15.4072 281.067 11.8054 280.484 11.5452C280.367 11.4891 278.609 11.2901 278.609 11.2901C278.609 11.2901 277.934 15.8 275.072 17.4887C275.072 17.4887 278.322 13.5553 277.924 11.2085L275.251 11.0656C275.251 11.0656 274.791 15.8561 271.606 17.9121C271.606 17.9121 274.862 13.6828 274.673 11.0707L272.03 11.285C272.03 11.285 271.489 15.948 268.826 17.6417C268.826 17.6417 272.097 12.3768 271.427 11.3768C271.427 11.3768 269.01 11.7186 268.412 12.1166C268.412 12.1166 267.947 15.4531 266.311 16.3C266.311 16.3 268.126 12.5502 267.758 12.2849C267.758 12.2849 264.727 13.5706 263.536 15.0297C264.564 13.6311 265.942 12.5264 267.533 11.8258C266.543 11.4126 265.453 11.299 264.399 11.4993C264.399 11.4993 265.703 10.0402 268.269 11.5248C268.269 11.5248 270.671 10.6167 271.08 10.734C271.08 10.734 268.754 8.9127 266.827 8.59129C266.827 8.59129 269.143 7.93317 271.775 10.632L274.428 10.3616C274.428 10.3616 271.484 7.81073 269.787 7.37708C269.787 7.37708 272.255 7.07098 275.107 10.3463L277.724 10.4585C277.724 10.4585 275.358 8.05051 273.569 7.18832C273.569 7.18832 275.92 7.39239 278.476 10.5197L280.214 10.8003C280.214 10.8003 278.445 9.09636 277.893 8.65762C277.341 8.21887 277.418 8.025 277.418 8.025C278.84 8.65281 280.059 9.66321 280.939 10.9432C280.939 10.9432 284.492 11.7186 284.579 11.5248Z" fill="#1475E2"/>
<path opacity="0.1" d="M344.186 26.284C344.186 26.284 337.95 7.86173 326.189 15.1011C326.189 15.1011 323.787 15.6112 323.598 18.0142C323.598 18.0142 324.543 17.6672 324.962 19.6059C325.118 20.2955 325.353 20.9649 325.663 21.6007C326.085 22.4563 326.774 23.1526 327.625 23.5852C327.625 23.5852 331.776 27.7942 340.853 26.4014C340.853 26.4014 343.25 27.1258 343.69 26.8758L341.134 24.3709C341.134 24.3709 339.366 26.2942 337.209 26.2177C337.209 26.2177 341.109 24.5239 340.787 23.9781C340.72 23.8709 339.386 22.7128 339.386 22.7128C339.386 22.7128 336.289 26.0443 332.967 25.8249C332.967 25.8249 337.878 24.427 338.88 22.2537L336.764 20.6262C336.764 20.6262 333.667 24.3097 329.869 24.1974C329.869 24.1974 334.98 22.5598 336.273 20.2946L333.973 18.9733C333.973 18.9733 330.907 22.5088 327.728 22.3965C327.728 22.3965 333.411 19.912 333.427 18.708C333.427 18.708 331.244 17.6213 330.523 17.6111C330.523 17.6111 328.244 20.0957 326.434 19.8712C326.434 19.8712 330.053 17.805 329.9 17.3815C329.9 17.3815 326.68 16.7234 324.865 17.254C326.506 16.6837 328.268 16.5517 329.976 16.8714C329.393 15.9729 328.56 15.2638 327.579 14.8307C327.579 14.8307 329.481 14.3664 330.753 17.0397C330.753 17.0397 333.248 17.657 333.513 17.9784C333.513 17.9784 332.634 15.1674 331.229 13.8103C331.229 13.8103 333.513 14.5807 334.137 18.3101L336.478 19.5855C336.478 19.5855 335.512 15.8051 334.347 14.4838C334.347 14.4838 336.56 15.6266 337.04 19.9375L339.136 21.5139C339.136 21.5139 338.553 18.1876 337.572 16.4632C337.572 16.4632 339.391 17.9631 339.718 21.9884L340.991 23.2026C340.991 23.2026 340.521 20.7844 340.327 20.1008C340.132 19.4171 340.291 19.3712 340.291 19.3712C341.103 20.6947 341.533 22.2167 341.533 23.7689C341.533 23.7689 344.007 26.4167 344.186 26.284Z" fill="#1475E2"/>
<path opacity="0.1" d="M303.49 27.1922C303.49 27.1922 284.119 25.0392 285.718 38.7578C285.718 38.7578 285.141 41.1352 287.252 42.329C287.252 42.329 287.339 41.3086 289.296 41.7678C289.988 41.9163 290.695 41.9865 291.402 41.9769C292.358 41.9597 293.282 41.6319 294.034 41.0433C294.034 41.0433 299.611 39.069 302.212 30.2685C302.212 30.2685 303.879 28.4064 303.843 27.9013L300.495 29.1359C300.495 29.1359 301.517 31.549 300.495 33.4673C300.495 33.4673 300.602 29.2277 299.984 29.2941C299.856 29.2941 298.241 30.0287 298.241 30.0287C298.241 30.0287 299.958 34.2376 298.353 37.1711C298.353 37.1711 299.161 32.1306 297.623 30.3144L295.246 31.5388C295.246 31.5388 297.29 35.9008 295.578 39.2883C295.578 39.2883 296.242 33.9927 294.745 31.8449L292.573 33.3754C292.573 33.3754 294.474 37.666 293.038 40.477C293.038 40.477 293.186 34.2835 292.097 33.7581C292.097 33.7581 290.186 35.2886 289.874 35.9212C289.874 35.9212 291.167 39.0332 290.191 40.5893C290.191 40.5893 289.848 36.4416 289.399 36.4008C289.399 36.4008 287.436 39.0383 287.15 40.9005C287.327 39.1741 287.954 37.5241 288.969 36.1151C287.909 36.2614 286.914 36.7135 286.107 37.416C286.107 37.416 286.485 35.5029 289.45 35.4824C289.45 35.4824 291.06 33.4877 291.494 33.3805C291.494 33.3805 288.565 32.9877 286.741 33.6866C286.741 33.6866 288.402 31.9419 292.051 32.9571L294.203 31.3807C294.203 31.3807 290.313 30.595 288.668 31.1052C288.668 31.1052 290.641 29.5747 294.76 30.9776L297.076 29.7481C297.076 29.7481 293.81 28.8706 291.831 29.0288C291.831 29.0288 293.963 28.0084 297.75 29.4216L299.396 28.7839C299.396 28.7839 296.999 28.187 296.294 28.0748C295.588 27.9625 295.563 27.7686 295.563 27.7686C297.108 27.5917 298.672 27.846 300.081 28.5033C300.081 28.5033 303.526 27.4064 303.49 27.1922Z" fill="#1475E2"/>
<path opacity="0.1" d="M472.979 177.269C472.979 177.269 453.617 175.116 455.217 188.82C455.217 188.82 454.639 191.197 456.75 192.391C456.75 192.391 456.837 191.371 458.795 191.825C459.486 191.978 460.193 192.048 460.901 192.034C461.857 192.019 462.782 191.691 463.533 191.1C463.533 191.1 469.109 189.126 471.685 180.33C471.685 180.33 473.352 178.463 473.316 177.963L469.968 179.193C469.968 179.193 470.99 181.611 469.968 183.529C469.968 183.529 470.075 179.285 469.457 179.356C469.329 179.356 467.714 180.086 467.714 180.086C467.714 180.086 469.431 184.294 467.826 187.228C467.826 187.228 468.634 182.193 467.096 180.371L464.719 181.601C464.719 181.601 466.763 185.963 465.056 189.35C465.056 189.35 465.716 184.055 464.218 181.902L462.046 183.432C462.046 183.432 463.947 187.723 462.511 190.529C462.511 190.529 462.659 184.335 461.57 183.815C461.57 183.815 459.664 185.345 459.347 185.978C459.347 185.978 460.645 189.09 459.664 190.646C459.664 190.646 459.321 186.498 458.872 186.458C458.872 186.458 456.909 189.095 456.623 190.957C456.8 189.231 457.427 187.581 458.442 186.172C457.381 186.316 456.385 186.768 455.58 187.473C455.58 187.473 455.958 185.555 458.923 185.534C458.923 185.534 460.538 183.539 460.967 183.437C460.967 183.437 458.038 183.039 456.214 183.738C456.214 183.738 457.875 181.999 461.529 183.014L463.676 181.438C463.676 181.438 459.832 180.713 458.161 181.213C458.161 181.213 460.134 179.683 464.254 181.08L466.569 179.856C466.569 179.856 463.303 178.978 461.325 179.137C461.325 179.137 463.456 178.116 467.244 179.529L468.89 178.887C468.89 178.887 466.492 178.29 465.787 178.183C465.082 178.075 465.056 177.876 465.056 177.876C466.601 177.696 468.165 177.949 469.574 178.606C469.574 178.606 473.03 177.489 472.979 177.269Z" fill="#1475E2"/>
<path opacity="0.1" d="M502.578 195.319C502.578 195.319 483.216 193.171 484.816 206.87C484.816 206.87 484.244 209.247 486.349 210.441C486.349 210.441 486.436 209.42 488.394 209.88C489.084 210.029 489.789 210.098 490.495 210.084C491.446 210.064 492.366 209.739 493.117 209.155C493.117 209.155 498.688 207.181 501.264 198.38C501.264 198.38 502.935 196.518 502.895 196.013L499.547 197.243C499.547 197.243 500.569 199.661 499.547 201.579C499.547 201.579 499.654 197.34 499.036 197.406C498.908 197.406 497.293 198.135 497.293 198.135C497.293 198.135 499.01 202.344 497.405 205.278C497.405 205.278 498.213 200.242 496.674 198.426L494.297 199.651C494.297 199.651 496.342 204.013 494.635 207.4C494.635 207.4 495.294 202.105 493.797 199.957L491.624 201.487C491.624 201.487 493.526 205.778 492.095 208.589C492.095 208.589 492.238 202.39 491.149 201.87C491.149 201.87 489.242 203.4 488.926 204.033C488.926 204.033 490.224 207.145 489.242 208.701C489.242 208.701 488.9 204.553 488.45 204.513C488.45 204.513 486.487 207.15 486.206 209.012C486.383 207.287 487.009 205.637 488.021 204.227C486.96 204.373 485.965 204.825 485.159 205.528C485.159 205.528 485.542 203.61 488.506 203.594C488.506 203.594 490.116 201.6 490.551 201.492C490.551 201.492 487.622 201.1 485.797 201.798C485.797 201.798 487.459 200.054 491.113 201.069L493.26 199.492C493.26 199.492 489.416 198.768 487.745 199.268C487.745 199.268 489.718 197.738 493.837 199.14L496.153 197.911C496.153 197.911 492.887 197.033 490.909 197.192C490.909 197.192 493.04 196.171 496.828 197.584L498.473 196.947C498.473 196.947 496.076 196.35 495.376 196.238C494.676 196.125 494.64 195.931 494.64 195.931C496.185 195.755 497.749 196.009 499.158 196.666C499.158 196.666 502.629 195.539 502.578 195.319Z" fill="#1475E2"/>
<path opacity="0.1" d="M436.863 43.283C436.863 43.283 421.263 31.6357 415.687 44.2523C415.687 44.2523 413.985 46.0124 415.206 48.1194C415.206 48.1194 415.789 47.298 417.251 48.6602C417.769 49.141 418.342 49.5588 418.958 49.905C419.793 50.3686 420.757 50.5477 421.703 50.4152C421.703 50.4152 427.509 51.5324 434.2 45.2522C434.2 45.2522 436.582 44.487 436.806 44.038L433.295 43.4054C433.295 43.4054 432.927 45.992 431.113 47.1501C431.113 47.1501 433.356 43.5483 432.774 43.2881C432.656 43.232 430.903 43.033 430.903 43.033C430.903 43.033 430.244 47.5327 427.381 49.2316C427.381 49.2316 430.637 45.2981 430.233 42.9514L427.56 42.8085C427.56 42.8085 427.105 47.599 423.916 49.6601C423.916 49.6601 427.177 45.4308 426.983 42.8187L424.335 43.033C424.335 43.033 423.824 47.6909 421.135 49.3846C421.135 49.3846 424.407 44.1197 423.732 43.1197C423.732 43.1197 421.314 43.4615 420.716 43.8595C420.716 43.8595 420.256 47.196 418.621 48.0429C418.621 48.0429 420.43 44.2931 420.062 44.0329C420.062 44.0329 417.031 45.3135 415.84 46.7725C416.87 45.3755 418.248 44.2711 419.837 43.5687C418.849 43.1585 417.761 43.045 416.709 43.2422C416.709 43.2422 418.013 41.7831 420.578 43.2677C420.578 43.2677 422.975 42.3647 423.384 42.4769C423.384 42.4769 421.059 40.6556 419.132 40.3393C419.132 40.3393 421.452 39.6761 424.085 42.38L426.737 42.1096C426.737 42.1096 423.793 39.5587 422.096 39.1302C422.096 39.1302 424.565 38.819 427.412 42.0943L430.034 42.2116C430.034 42.2116 427.662 39.8036 425.879 38.9363C425.879 38.9363 428.23 39.1404 430.78 42.2677L432.523 42.5483C432.523 42.5483 430.76 40.8239 430.208 40.375C429.656 39.926 429.738 39.7781 429.738 39.7781C431.158 40.4076 432.375 41.4178 433.254 42.6963C433.254 42.6963 436.796 43.4921 436.863 43.283Z" fill="#1475E2"/>
<path opacity="0.1" d="M448.915 127.369C448.915 127.369 443.538 108.682 431.445 115.391C431.445 115.391 429.022 115.763 428.721 118.181C428.721 118.181 429.682 117.88 430.014 119.834C430.137 120.536 430.343 121.221 430.627 121.875C431.006 122.754 431.663 123.485 432.498 123.956C432.498 123.956 436.454 128.344 445.583 127.364C445.583 127.364 447.944 128.191 448.394 127.966L445.976 125.344C445.976 125.344 444.121 127.191 441.974 127.017C441.974 127.017 445.94 125.487 445.634 124.941C445.572 124.829 444.295 123.61 444.295 123.61C444.295 123.61 441.054 126.803 437.742 126.431C437.742 126.431 442.715 125.257 443.809 123.145L441.765 121.421C441.765 121.421 438.504 124.961 434.716 124.686C434.716 124.686 439.868 123.273 441.289 121.074L439.05 119.651C439.05 119.651 435.805 123.043 432.656 122.788C432.656 122.788 438.447 120.559 438.519 119.36C438.519 119.36 436.382 118.176 435.662 118.135C435.662 118.135 433.275 120.513 431.46 120.207C431.46 120.207 435.171 118.304 435.038 117.875C435.038 117.875 431.849 117.074 430.014 117.518C431.676 117.026 433.437 116.975 435.125 117.37C434.584 116.447 433.785 115.702 432.825 115.227C432.825 115.227 434.747 114.845 435.892 117.574C435.892 117.574 438.35 118.299 438.606 118.635C438.606 118.635 437.854 115.783 436.51 114.37C436.51 114.37 438.759 115.238 439.214 118.992L441.494 120.375C441.494 120.375 440.696 116.549 439.592 115.202C439.592 115.202 441.749 116.442 442.041 120.768L444.085 122.436C444.085 122.436 443.651 119.089 442.751 117.334C442.751 117.334 444.504 118.916 444.647 122.946L445.864 124.222C445.864 124.222 445.506 121.783 445.353 121.089C445.199 120.395 445.353 120.299 445.353 120.299C446.109 121.656 446.472 123.196 446.4 124.747C446.4 124.747 448.731 127.492 448.915 127.369Z" fill="#1475E2"/>
<path opacity="0.1" d="M329.097 169.479C329.097 169.479 318.655 153.062 308.959 162.888C308.959 162.888 306.741 163.908 307.129 166.331C307.129 166.331 307.972 165.77 308.841 167.556C309.154 168.189 309.542 168.781 309.997 169.321C310.606 170.058 311.441 170.574 312.373 170.79C312.373 170.79 317.408 173.892 325.893 170.382C325.893 170.382 328.392 170.515 328.76 170.173L325.693 168.336C325.693 168.336 324.431 170.632 322.32 171.066C322.32 171.066 325.703 168.515 325.249 168.045C325.162 167.954 323.587 167.148 323.587 167.148C323.587 167.148 321.374 171.117 318.093 171.693C318.093 171.693 322.534 169.168 322.994 166.831L320.546 165.755C320.546 165.755 318.415 170.066 314.704 170.857C314.704 170.857 319.253 168.056 319.994 165.546L317.439 164.811C317.439 164.811 315.282 168.979 312.189 169.617C312.189 169.617 317.117 165.852 316.846 164.678C316.846 164.678 314.464 164.143 313.779 164.306C313.779 164.306 312.159 167.26 310.329 167.474C310.329 167.474 313.355 164.607 313.104 164.229C313.104 164.229 309.818 164.357 308.182 165.301C309.641 164.357 311.322 163.812 313.058 163.719C312.281 162.985 311.306 162.494 310.252 162.306C310.252 162.306 311.985 161.403 313.83 163.699C313.83 163.699 316.386 163.699 316.738 163.954C316.738 163.954 315.205 161.403 313.523 160.449C313.523 160.449 315.926 160.653 317.418 164.127L319.999 164.811C319.999 164.811 318.154 161.367 316.718 160.383C316.718 160.383 319.135 160.964 320.633 165.041L323.046 166.061C323.046 166.061 321.686 162.974 320.321 161.531C320.321 161.531 322.448 162.551 323.72 166.382L325.254 167.265C325.254 167.265 324.231 165.025 323.868 164.408C323.506 163.791 323.649 163.648 323.649 163.648C324.755 164.738 325.535 166.114 325.903 167.622C325.903 167.622 328.959 169.653 329.097 169.479Z" fill="#1475E2"/>
<path d="M397.726 85.5966C397.726 85.5966 387.795 68.8681 377.792 78.3879C377.792 78.3879 375.543 79.3572 375.86 81.7755C375.86 81.7755 376.714 81.2347 377.532 83.0458C377.824 83.6896 378.193 84.2959 378.63 84.8518C379.217 85.6041 380.037 86.1421 380.961 86.3823C380.961 86.3823 385.894 89.6372 394.486 86.3823C394.486 86.3823 396.98 86.5915 397.358 86.2599L394.358 84.3314C394.358 84.3314 393.029 86.5813 390.903 86.9537C390.903 86.9537 394.363 84.4896 393.928 84.0253C393.836 83.9284 392.293 83.0713 392.293 83.0713C392.293 83.0713 389.957 86.9741 386.67 87.4486C386.67 87.4486 391.189 85.061 391.715 82.7448L389.303 81.6122C389.303 81.6122 387.038 85.8619 383.302 86.5405C383.302 86.5405 387.938 83.8825 388.756 81.3979L386.231 80.5816C386.231 80.5816 383.941 84.663 380.833 85.2242C380.833 85.2242 385.873 81.6122 385.638 80.4337C385.638 80.4337 383.277 79.8215 382.571 79.9643C382.571 79.9643 380.859 82.8672 379.024 83.0254C379.024 83.0254 382.137 80.2602 381.902 79.8725C381.902 79.8725 378.61 79.898 376.949 80.7908C378.437 79.8949 380.134 79.4025 381.871 79.3623C381.115 78.6039 380.154 78.0826 379.106 77.8624C379.106 77.8624 380.869 77.0104 382.684 79.3623C382.684 79.3623 385.239 79.4491 385.582 79.7093C385.582 79.7093 384.135 77.1584 382.479 76.1074C382.479 76.1074 384.871 76.3829 386.256 79.9031L388.812 80.6684C388.812 80.6684 387.079 77.1686 385.669 76.138C385.669 76.138 388.071 76.7962 389.441 80.9133L391.817 82.0203C391.817 82.0203 390.555 78.893 389.262 77.4288C389.262 77.4288 391.352 78.5154 392.513 82.3826L394.01 83.3111C394.01 83.3111 393.049 81.0408 392.712 80.4133C392.375 79.7858 392.518 79.648 392.518 79.648C393.589 80.772 394.327 82.1708 394.649 83.6886C394.649 83.6886 397.578 85.765 397.726 85.5966Z" fill="#1475E2"/>
<path d="M334.894 120.773C334.894 120.773 335.405 101.335 321.875 104.075C321.875 104.075 319.452 103.703 318.43 105.917C318.43 105.917 319.452 105.917 319.166 107.881C319.073 108.581 319.062 109.29 319.136 109.993C319.228 110.946 319.632 111.843 320.286 112.544C320.286 112.544 322.724 117.921 331.725 119.748C331.725 119.748 333.723 121.253 334.224 121.171L332.691 117.947C332.691 117.947 330.365 119.14 328.366 118.329C328.366 118.329 332.609 118.079 332.491 117.457C332.491 117.329 331.612 115.778 331.612 115.778C331.612 115.778 327.554 117.845 324.513 116.488C324.513 116.488 329.624 116.87 331.295 115.192L329.869 112.932C329.869 112.932 325.688 115.319 322.161 113.911C322.161 113.911 327.503 114.125 329.527 112.457L327.825 110.416C327.825 110.416 323.7 112.671 320.776 111.478C320.776 111.478 326.971 111.105 327.421 109.978C327.421 109.978 325.744 108.207 325.07 107.937C325.07 107.937 322.074 109.468 320.439 108.641C320.439 108.641 324.528 107.957 324.553 107.503C324.553 107.503 321.758 105.774 319.872 105.646C321.611 105.677 323.311 106.163 324.804 107.054C324.571 106.012 324.038 105.059 323.271 104.315C323.271 104.315 325.218 104.534 325.484 107.478C325.484 107.478 327.615 108.917 327.753 109.315C327.753 109.315 327.901 106.371 327.048 104.616C327.048 104.616 328.929 106.121 328.223 109.835L329.976 111.845C329.976 111.845 330.375 107.957 329.736 106.34C329.736 106.34 331.413 108.172 330.38 112.386L331.796 114.585C331.796 114.585 332.399 111.263 332.077 109.309C332.077 109.309 333.263 111.35 332.179 115.233L332.956 116.814C332.956 116.814 333.35 114.381 333.401 113.671C333.452 112.962 333.646 112.916 333.646 112.916C333.954 114.438 333.832 116.016 333.294 117.472C333.294 117.472 334.669 120.839 334.894 120.773Z" fill="#1475E2"/>
<path opacity="0.1" d="M357.26 367.757C364.862 367.757 371.025 366.718 371.025 365.436C371.025 364.154 364.862 363.115 357.26 363.115C349.658 363.115 343.496 364.154 343.496 365.436C343.496 366.718 349.658 367.757 357.26 367.757Z" fill="#1475E2"/>
<path opacity="0.1" d="M307.083 403C314.685 403 320.848 401.961 320.848 400.679C320.848 399.397 314.685 398.357 307.083 398.357C299.481 398.357 293.319 399.397 293.319 400.679C293.319 401.961 299.481 403 307.083 403Z" fill="#1475E2"/>
<path opacity="0.1" d="M47.6061 384.945C55.2081 384.945 61.3707 383.906 61.3707 382.624C61.3707 381.342 55.2081 380.302 47.6061 380.302C40.0042 380.302 33.8416 381.342 33.8416 382.624C33.8416 383.906 40.0042 384.945 47.6061 384.945Z" fill="#1475E2"/>
<path opacity="0.1" d="M411.485 400.679C419.087 400.679 425.25 399.639 425.25 398.357C425.25 397.075 419.087 396.036 411.485 396.036C403.883 396.036 397.721 397.075 397.721 398.357C397.721 399.639 403.883 400.679 411.485 400.679Z" fill="#1475E2"/>
<path d="M425.817 372.374C437.168 372.374 446.37 370.821 446.37 368.905C446.37 366.989 437.168 365.436 425.817 365.436C414.467 365.436 405.265 366.989 405.265 368.905C405.265 370.821 414.467 372.374 425.817 372.374Z" fill="#1475E2"/>
<path d="M434.338 363.227C435.276 362.466 435.959 361.437 436.296 360.278C436.551 359.105 436.05 357.702 434.931 357.273C433.674 356.794 432.329 357.661 431.307 358.539C430.285 359.416 429.125 360.421 427.79 360.237C428.475 359.616 428.988 358.829 429.278 357.952C429.568 357.075 429.626 356.139 429.447 355.233C429.389 354.857 429.23 354.504 428.987 354.212C428.286 353.467 427.024 353.789 426.186 354.376C423.528 356.243 422.787 359.845 422.771 363.089C422.505 361.921 422.73 360.702 422.725 359.518C422.72 358.334 422.388 356.967 421.371 356.345C420.746 355.997 420.041 355.821 419.326 355.835C418.13 355.794 416.796 355.911 415.984 356.784C414.961 357.865 415.232 359.686 416.111 360.865C416.99 362.043 418.335 362.804 419.572 363.63C420.562 364.22 421.407 365.024 422.045 365.982C422.118 366.115 422.178 366.255 422.224 366.4H429.717C431.395 365.557 432.949 364.489 434.338 363.227Z" fill="#1475E2"/>
<path d="M38.365 371.834C38.365 371.834 46.2107 371.594 48.5875 369.91C50.9642 368.227 60.6653 366.222 61.2531 368.921C61.8409 371.619 73.0499 382.333 64.187 382.404C55.3241 382.476 43.5938 381.027 41.2324 379.588C38.871 378.15 38.365 371.834 38.365 371.834Z" fill="#A8A8A8"/>
<path opacity="0.2" d="M64.3352 381.466C55.4723 381.537 43.742 380.088 41.3806 378.649C39.5815 377.558 38.8659 373.634 38.6257 371.823H38.365C38.365 371.823 38.8761 378.144 41.2222 379.578C43.5682 381.012 55.3139 382.466 64.1767 382.394C66.7324 382.394 67.6166 381.466 67.5706 380.119C67.2128 380.94 66.2366 381.45 64.3352 381.466Z" fill="black"/>
</g>
<defs>
<linearGradient id="paint0_linear" x1="113.975" y1="221.119" x2="273.512" y2="221.119" gradientUnits="userSpaceOnUse">
<stop stop-color="#808080" stop-opacity="0.25"/>
<stop offset="0.54" stop-color="#808080" stop-opacity="0.12"/>
<stop offset="1" stop-color="#808080" stop-opacity="0.1"/>
</linearGradient>
<clipPath id="clip0">
<rect width="516" height="403" fill="white"/>
</clipPath>
</defs>
</svg>
