<svg width="1440" height="794" viewBox="0 0 1440 794" fill="none" xmlns="http://www.w3.org/2000/svg">
<g filter="url(#filter0_d)">
<path d="M1442 1C857.125 174.592 1419.23 234.165 794.944 375.373C310.225 485.012 -202.423 695.31 -207 784.51C-191.8 800.546 -135.743 792.188 -39.9271 788.633C-18.5559 787.84 5.0583 786.478 31.0217 784.51H1442V1Z" fill="#1475E2"/>
<path d="M1442 1C857.125 174.592 1419.23 234.165 794.944 375.373C310.225 485.012 -202.423 695.31 -207 784.51C-191.8 800.546 -135.743 792.188 -39.9271 788.633C-18.5559 787.84 5.0583 786.478 31.0217 784.51H1442V1Z" stroke="white"/>
</g>
<defs>
<filter id="filter0_d" x="-211.51" y="0.330017" width="1658.01" height="802.17" filterUnits="userSpaceOnUse" color-interpolation-filters="sRGB">
<feFlood flood-opacity="0" result="BackgroundImageFix"/>
<feColorMatrix in="SourceAlpha" type="matrix" values="0 0 0 0 0 0 0 0 0 0 0 0 0 0 0 0 0 0 127 0"/>
<feOffset dy="4"/>
<feGaussianBlur stdDeviation="2"/>
<feColorMatrix type="matrix" values="0 0 0 0 0 0 0 0 0 0 0 0 0 0 0 0 0 0 0.25 0"/>
<feBlend mode="normal" in2="BackgroundImageFix" result="effect1_dropShadow"/>
<feBlend mode="normal" in="SourceGraphic" in2="effect1_dropShadow" result="shape"/>
</filter>
</defs>
</svg>
