<svg width="605" height="605" viewBox="0 0 605 605" fill="none" xmlns="http://www.w3.org/2000/svg">
<g clip-path="url(#clip0)">
<path d="M573.805 125.206H31.1931V605H573.805V125.206Z" fill="#EDE5C0"/>
<path d="M305.721 390.22H191.064V605H305.721V390.22Z" fill="#D6CEAA"/>
<path d="M297.646 398.294H199.138V596.926H297.646V398.294Z" fill="#2D4151"/>
<path opacity="0.2" d="M291.888 405.335V590.9H214.371C214.371 590.899 282.392 519.077 291.888 405.335Z" fill="#FCFAFA"/>
<path d="M301.684 445.934H195.101V454.008H301.684V445.934Z" fill="#D6CEAA"/>
<path d="M413.936 390.22H299.279V605H413.936V390.22Z" fill="#D6CEAA"/>
<path d="M405.862 398.294H307.354V596.926H405.862V398.294Z" fill="#2D4151"/>
<path opacity="0.2" d="M400.101 405.335V590.9H322.587C322.587 590.899 390.606 519.077 400.101 405.335Z" fill="#FCFAFA"/>
<path d="M409.899 445.934H303.316V454.008H409.899V445.934Z" fill="#D6CEAA"/>
<path d="M552.644 390.22H437.987V605H552.644V390.22Z" fill="#D6CEAA"/>
<path d="M544.569 398.294H446.061V596.926H544.569V398.294Z" fill="#2D4151"/>
<path opacity="0.2" d="M538.809 405.335V590.9H461.294C461.294 590.899 529.313 519.077 538.809 405.335Z" fill="#FCFAFA"/>
<path d="M548.606 445.934H442.024V454.008H548.606V445.934Z" fill="#D6CEAA"/>
<path d="M167.013 390.22H52.3562V605H167.013V390.22Z" fill="#D6CEAA"/>
<path d="M158.939 398.294H60.4307V596.926H158.939V398.294Z" fill="#2D4151"/>
<path opacity="0.2" d="M153.18 405.335V590.9H75.6655C75.6639 590.899 143.683 519.077 153.18 405.335Z" fill="#FCFAFA"/>
<path d="M162.976 445.934H56.3933V454.008H162.976V445.934Z" fill="#D6CEAA"/>
<path d="M552.644 156.696H437.987V371.476H552.644V156.696Z" fill="#D6CEAA"/>
<path d="M544.569 164.77H446.061V363.401H544.569V164.77Z" fill="#2D4151"/>
<path opacity="0.2" d="M538.809 171.811V357.376H461.294C461.294 357.376 529.313 285.554 538.809 171.811Z" fill="#FCFAFA"/>
<path d="M548.607 212.409H442.024V220.484H548.607V212.409Z" fill="#D6CEAA"/>
<path d="M167.013 156.696H52.3562V371.476H167.013V156.696Z" fill="#D6CEAA"/>
<path d="M158.939 164.77H60.4307V363.401H158.939V164.77Z" fill="#2D4151"/>
<path opacity="0.2" d="M153.18 171.811V357.376H75.6655C75.6639 357.376 143.683 285.554 153.18 171.811Z" fill="#FCFAFA"/>
<path d="M162.976 212.409H56.3933V220.484H162.976V212.409Z" fill="#D6CEAA"/>
<path d="M295.557 156.696H180.9V371.476H295.557V156.696Z" fill="#D6CEAA"/>
<path d="M287.482 164.77H188.974V363.401H287.482V164.77Z" fill="#2D4151"/>
<path opacity="0.2" d="M281.722 171.811V357.376H204.207C204.207 357.376 272.226 285.554 281.722 171.811Z" fill="#FCFAFA"/>
<path d="M291.52 212.409H184.937V220.484H291.52V212.409Z" fill="#D6CEAA"/>
<path d="M424.1 156.696H309.443V371.476H424.1V156.696Z" fill="#D6CEAA"/>
<path d="M416.026 164.77H317.518V363.401H416.026V164.77Z" fill="#2D4151"/>
<path opacity="0.2" d="M410.266 171.811V357.376H332.749C332.751 357.376 400.77 285.554 410.266 171.811Z" fill="#FCFAFA"/>
<path d="M420.063 212.409H313.48V220.484H420.063V212.409Z" fill="#D6CEAA"/>
<path d="M318.11 499.322H286.89V541.847H318.11V499.322Z" fill="#D6CEAA"/>
<path d="M429.489 39.442H175.509V121.168H429.489V39.442Z" fill="#1475E2"/>
<path d="M433.528 125.205H171.472V35.4048H433.526V125.205H433.528ZM179.546 117.131H425.452V43.4792H179.546V117.131Z" fill="#D6CEAA"/>
<path d="M193.147 59.7105H197.822V76.402H218.853V59.7105H223.526V99.1009H218.853V80.7412H197.822V99.1009H193.147V59.7105Z" fill="white"/>
<path d="M262.749 100.104C259.743 100.104 256.99 99.5837 254.487 98.5469C251.984 97.5086 249.813 96.0713 247.977 94.2352C246.141 92.3991 244.712 90.2109 243.693 87.6707C242.672 85.1304 242.164 82.3754 242.164 79.4089C242.164 76.4424 242.674 73.6873 243.693 71.1471C244.712 68.6069 246.139 66.4187 247.977 64.5826C249.813 62.7465 251.982 61.3092 254.487 60.2709C256.99 59.2341 259.745 58.7141 262.749 58.7141C265.754 58.7141 268.507 59.2341 271.01 60.2709C273.513 61.3108 275.684 62.7465 277.52 64.5826C279.356 66.4187 280.784 68.6069 281.804 71.1471C282.825 73.689 283.335 76.4424 283.335 79.4089C283.335 82.3771 282.825 85.1304 281.804 87.6707C280.784 90.2125 279.358 92.3991 277.52 94.2352C275.684 96.0713 273.515 97.5086 271.01 98.5469C268.507 99.5837 265.752 100.104 262.749 100.104ZM262.749 95.7645C265.048 95.7645 267.152 95.3382 269.063 94.4839C270.972 93.6312 272.614 92.462 273.987 90.9796C275.358 89.4971 276.425 87.7627 277.186 85.778C277.945 83.7933 278.326 81.6697 278.326 79.4073C278.326 77.1448 277.945 75.0212 277.186 73.0366C276.425 71.0519 275.358 69.3175 273.987 67.8334C272.614 66.3509 270.972 65.1817 269.063 64.3291C267.152 63.4764 265.048 63.0501 262.749 63.0501C260.449 63.0501 258.345 63.4764 256.434 64.3291C254.524 65.1833 252.882 66.3509 251.511 67.8334C250.138 69.3175 249.07 71.0519 248.311 73.0366C247.551 75.0212 247.171 77.1448 247.171 79.4073C247.171 81.6697 247.551 83.7933 248.311 85.778C249.07 87.7627 250.138 89.4971 251.511 90.9796C252.882 92.4637 254.524 93.6312 256.434 94.4839C258.343 95.3382 260.447 95.7645 262.749 95.7645Z" fill="white"/>
<path d="M328.4 64.0513H315.381V99.1024H310.706V64.0513H297.687V59.7121H328.399L328.4 64.0513Z" fill="white"/>
<path d="M345.034 59.7105H369.791V64.0497H349.707V76.4004H368.456V80.7396H349.707V94.76H370.793V99.0992H345.032L345.034 59.7105Z" fill="white"/>
<path d="M389.152 59.7105H393.827V94.7617H411.854V99.1009H389.154L389.152 59.7105Z" fill="white"/>
<path d="M217.719 0L222.87 10.4386L234.389 12.1133L226.053 20.2378L228.022 31.7116L217.719 26.2952L207.414 31.7116L209.383 20.2378L201.047 12.1133L212.566 10.4386L217.719 0Z" fill="#F9C032"/>
<path d="M387.282 0L392.434 10.4386L403.953 12.1133L395.617 20.2378L397.585 31.7116L387.282 26.2952L376.978 31.7116L378.946 20.2378L370.61 12.1133L382.129 10.4386L387.282 0Z" fill="#F9C032"/>
<path d="M344.891 0L350.043 10.4386L361.562 12.1133L353.226 20.2378L355.194 31.7116L344.891 26.2952L334.587 31.7116L336.555 20.2378L328.219 12.1133L339.738 10.4386L344.891 0Z" fill="#F9C032"/>
<path d="M302.501 0L307.652 10.4386L319.171 12.1133L310.835 20.2378L312.804 31.7116L302.501 26.2952L292.196 31.7116L294.165 20.2378L285.829 12.1133L297.348 10.4386L302.501 0Z" fill="#F9C032"/>
<path d="M260.11 0L265.261 10.4386L276.78 12.1133L268.444 20.2378L270.413 31.7116L260.11 26.2952L249.805 31.7116L251.774 20.2378L243.438 12.1133L254.957 10.4386L260.11 0Z" fill="#F9C032"/>
<path d="M589.491 125.206H15.5093V139.739H589.491V125.206Z" fill="#EDE5C0"/>
<path d="M573.805 139.74H31.1931V147.814H573.805V139.74Z" fill="#D6CEAA"/>
</g>
<defs>
<clipPath id="clip0">
<rect width="605" height="605" fill="white"/>
</clipPath>
</defs>
</svg>
